<?xml version="1.0" encoding="iso-8859-1"?>
<!-- Generator: Adobe Illustrator 16.0.0, SVG Export Plug-In . SVG Version: 6.00 Build 0)  -->
<!DOCTYPE svg PUBLIC "-//W3C//DTD SVG 1.1//EN" "http://www.w3.org/Graphics/SVG/1.1/DTD/svg11.dtd">
<svg version="1.1" id="Layer_1" xmlns="http://www.w3.org/2000/svg" xmlns:xlink="http://www.w3.org/1999/xlink" x="0px" y="0px"
	 width="442px" height="148px" viewBox="0 0 442 148" style="enable-background:new 0 0 442 148;" xml:space="preserve">
<g>
	<g>
		<circle style="fill:#FFFFFF;" cx="85.939" cy="73.924" r="55.804"/>
		<path style="fill:#53A144;" d="M63.247,63.694c0,0,5.812-57.407,8.471-57.901h28.449L63.247,63.694z"/>
		<path style="fill:#FCCF4E;" d="M63.427,80.299c0,0-37.137-44.163-35.638-46.415l19.819-20.409L63.427,80.299z"/>
		<path style="fill:#F18950;" d="M75.366,95.063c0,0-57.616-3.131-58.234-5.765L15.806,60.88L75.366,95.063z"/>
		<path style="fill:#CB1367;" d="M95.331,96.948c0,0-45.763,36.647-47.967,35.081l-19.8-20.429L95.331,96.948z"/>
		<path style="fill:#8F2153;" d="M107.803,84.305c0,0-5.813,57.409-8.472,57.901H70.882L107.803,84.305z"/>
		<path style="fill:#228DC5;" d="M107.802,66.231c0,0,37.136,44.163,35.638,46.414l-19.819,20.41L107.802,66.231z"/>
		<path style="fill:#11AAC7;" d="M94.836,54.106c0,0,57.618,3.132,58.233,5.765l1.326,28.417L94.836,54.106z"/>
		<path style="fill:#A1C544;" d="M79.417,51.876c0,0,45.267-35.78,47.472-34.214l19.8,20.428L79.417,51.876z"/>
		<polygon style="fill:#EEB031;" points="63.247,80.677 56.069,23.937 47.427,13.853 		"/>
		<polygon style="fill:#E46B4D;" points="74.623,96.948 29.426,61.9 15.806,60.88 		"/>
		<polygon style="fill:#B41C67;" points="95.682,97.61 37.903,103.078 27.563,111.601 		"/>
		<polygon style="fill:#6E1F4D;" points="108.689,84.879 72.299,129.003 70.882,142.206 		"/>
		<polygon style="fill:#0D62AB;" points="109.454,65.277 114.92,122.209 123.621,133.055 		"/>
		<polygon style="fill:#1489A0;" points="95.682,52.465 141.027,87.324 154.272,88.288 		"/>
		<polygon style="fill:#769531;" points="76.977,52.465 136.641,46.691 146.69,38.008 		"/>
		<polygon style="fill:#2F803F;" points="62.433,64.382 99.201,19.04 100.167,5.793 		"/>
	</g>
	<circle style="fill:#1A2D4D;" cx="85.565" cy="75.038" r="29.95"/>
	<g>
		<path style="fill:#FFFFFF;" d="M108.476,79.293h-5.371v-4.248h-1.96v-3.368h-1.293v-7.776h-1.335v7.776h-1.292v3.368h-1.96v4.248
			h-3.189v-8.119H89.76v-2.471h-4.164v-7.45h-2.144v7.45h-0.738v2.471h-6.499v8.119h-4.991v-3.608h0.367l1.063-2.123h-8.596
			l1.063,2.123h0.37v3.608h-2.835l3.271,9.49c0.112,0.027,0.238,0.04,0.394,0.04c0.155,0,0.277-0.015,0.39-0.04h8.843
			c0.112,0.025,0.235,0.04,0.388,0.04c0.155,0,0.279-0.015,0.39-0.04h8.843c0.112,0.025,0.235,0.04,0.39,0.04
			c0.154,0,0.277-0.015,0.389-0.04h8.843c0.111,0.025,0.236,0.04,0.39,0.04s0.277-0.015,0.389-0.04h6.054l1.125-1.126l0.037-0.244
			L108.476,79.293z"/>
	</g>
	<g>
		<path style="fill:#FFFFFF;" d="M181.017,40.192h1.813l6.298,17.938h-2.157l-1.543-4.999h-7.156l-1.618,4.999h-2.23L181.017,40.192
			z M184.791,51.318l-2.892-8.356l-2.965,8.356H184.791z"/>
		<path style="fill:#FFFFFF;" d="M190.472,48.23c0-2.009,0.857-3.234,3.381-3.234c1.274,0,5.122,0.27,6.396,0.392v1.397h-6.396
			c-1.568,0-1.568,0.613-1.568,1.446v1.127c0,1.348,0.662,1.397,1.568,1.397h3.872c2.132,0,3.186,1.323,3.186,3.161v1.201
			c0,2.671-1.617,3.137-3.186,3.137c-1.201,0-5.783-0.368-6.714-0.466v-1.348h6.714c0,0,1.373,0.147,1.373-1.323v-1.201
			c0-0.858-0.294-1.348-1.373-1.348h-3.872c-2.303,0-3.381-0.686-3.381-3.21V48.23z"/>
		<path style="fill:#FFFFFF;" d="M208.848,44.996c4.387,0,5.734,1.642,5.734,6.813c0,4.828-1.348,6.445-5.734,6.445
			c-4.386,0-5.734-1.789-5.734-6.445C203.114,46.49,204.584,44.996,208.848,44.996z M208.848,56.439
			c2.646,0,3.921-0.343,3.921-4.631c0-4.656-1.054-5-3.921-5c-2.745,0-3.921,0.319-3.921,5
			C204.927,56.146,206.324,56.439,208.848,56.439z"/>
		<path style="fill:#FFFFFF;" d="M221.073,44.996c1.274,0,3.872,0.318,5.587,0.637v1.323c0,0-3.406-0.147-5.587-0.147
			c-1.47,0-2.475,0.27-2.475,4.901c0,3.75,0.711,4.729,2.475,4.729c2.255,0,5.759-0.27,5.759-0.27v1.373
			c-1.984,0.563-3.725,0.686-5.759,0.71c-2.426,0-4.289-0.931-4.289-6.641C216.784,45.927,218.573,44.996,221.073,44.996z"/>
		<path style="fill:#FFFFFF;" d="M229.034,41.687c0-0.368,0.195-0.612,0.588-0.612h1.226c0.367,0,0.563,0.27,0.563,0.612v1.323
			c0,0.368-0.221,0.564-0.563,0.564h-1.226c-0.343,0-0.588-0.221-0.588-0.564V41.687z M229.279,45.118h1.813V58.13h-1.813V45.118z"
			/>
		<path style="fill:#FFFFFF;" d="M233.615,53.548c0-1.96,1.225-3.259,3.259-3.259c0,0,5.44,0.024,5.44,0c0,0,0.024-1.617,0-1.642
			c0-1.495-0.784-2.009-2.01-2.009c-1.764,0-3.896,0.123-6.273,0.294v-1.323c1.74-0.49,3.921-0.71,6.348-0.735
			c2.033-0.025,3.749,1.078,3.749,3.773v9.484h-1.348l-0.466-1.568c-0.049,0-3.21,1.715-5.44,1.715
			c-1.789,0-3.259-1.152-3.259-3.235V53.548z M236.874,56.464c1.961,0,5.44-1.25,5.44-1.25V51.71l-5.44,0.392
			c-1.054,0.098-1.445,0.809-1.445,1.593v1.225C235.429,56.096,236.041,56.464,236.874,56.464z"/>
		<path style="fill:#FFFFFF;" d="M250.863,44.996c1.274,0,3.872,0.318,5.587,0.637v1.323c0,0-3.406-0.147-5.587-0.147
			c-1.471,0-2.475,0.27-2.475,4.901c0,3.75,0.71,4.729,2.475,4.729c2.255,0,5.759-0.27,5.759-0.27v1.373
			c-1.984,0.563-3.725,0.686-5.759,0.71c-2.426,0-4.288-0.931-4.288-6.641C246.575,45.927,248.364,44.996,250.863,44.996z"/>
		<path style="fill:#FFFFFF;" d="M258.825,41.687c0-0.368,0.195-0.612,0.588-0.612h1.226c0.367,0,0.563,0.27,0.563,0.612v1.323
			c0,0.368-0.221,0.564-0.563,0.564h-1.226c-0.343,0-0.588-0.221-0.588-0.564V41.687z M259.07,45.118h1.813V58.13h-1.813V45.118z"/>
		<path style="fill:#FFFFFF;" d="M269.386,44.996c4.386,0,5.734,1.642,5.734,6.813c0,4.828-1.349,6.445-5.734,6.445
			c-4.387,0-5.734-1.789-5.734-6.445C263.651,46.49,265.121,44.996,269.386,44.996z M269.386,56.439
			c2.646,0,3.921-0.343,3.921-4.631c0-4.656-1.054-5-3.921-5c-2.745,0-3.921,0.319-3.921,5
			C265.465,56.146,266.861,56.439,269.386,56.439z M271.162,40.266h2.328l-3.26,3.259h-1.69L271.162,40.266z"/>
		<path style="fill:#FFFFFF;" d="M277.812,45.118h1.274l0.539,1.52c1.494-0.857,2.817-1.74,4.803-1.74
			c2.598,0,4.019,2.009,4.019,4.166v9.067h-1.813v-9.067c0-1.618-0.955-2.353-2.205-2.353c-1.961,0-2.916,0.49-4.803,1.396V58.13
			h-1.813V45.118z"/>
		<path style="fill:#FFFFFF;" d="M301.307,44.922c1.103,0,3.234,0.343,4.803,0.98v-7.008h1.789V58.13H306.6l-0.49-1.446
			c-0.637,0.465-3.137,1.593-4.803,1.593c-3.553,0-4.288-3.602-4.288-6.592C297.019,48.353,297.606,44.922,301.307,44.922z
			 M301.307,56.464c1.936,0,3.479-0.588,4.803-1.127v-7.964c-1.69-0.441-2.916-0.637-4.803-0.637c-1.568,0-2.475,0.956-2.475,4.95
			C298.832,54.871,299.714,56.464,301.307,56.464z"/>
		<path style="fill:#FFFFFF;" d="M316.275,45.02c3.063,0,4.975,0.294,4.975,4.607c0,1.887-1.004,2.99-3.356,2.99h-5.489
			c0,3.063,0.563,3.823,2.475,3.823c2.255,0,4.289,0.024,6.127-0.245v1.373c-1.985,0.563-4.093,0.686-6.127,0.686
			c-3.309,0-4.288-1.593-4.288-6.69C310.591,45.755,312.257,45.02,316.275,45.02z M317.894,50.828c1.078,0,1.544-0.392,1.544-1.201
			c0-2.573-0.49-2.793-3.137-2.793c-2.77,0-3.896,0.024-3.896,3.994H317.894z"/>
	</g>
	<g>
		<path style="fill:#FFFFFF;" d="M174.887,97.136h4.774v15.46c0,1.543,0.961,1.514,1.805,1.514h6.725v4.338h-8.69
			c-2.467,0-4.614-1.033-4.614-4.323V97.136z"/>
		<path style="fill:#FFFFFF;" d="M196.67,97.136h5.539l6.718,21.312h-4.986l-1.397-4.279h-6.427l-1.397,4.279h-5.007L196.67,97.136z
			 M201.503,110.026l-2.016-6.762l-2.213,6.762H201.503z M200.458,91.153h3.857l-3.436,4.09h-2.882L200.458,91.153z"/>
		<path style="fill:#FFFFFF;" d="M209.907,114.109l9.127-12.636h-9.127v-4.338h14.79v4.338l-8.472,12.636h8.472v4.338h-14.79
			V114.109z"/>
		<path style="fill:#FFFFFF;" d="M233.175,97.136h5.538l6.719,21.312h-4.986l-1.397-4.279h-6.427l-1.397,4.279h-5.007
			L233.175,97.136z M238.007,110.026l-2.016-6.762l-2.213,6.762H238.007z"/>
		<path style="fill:#FFFFFF;" d="M247.118,97.136h9.411c3.53,0,6.121,1.551,6.121,6.732c0,5.183-1.965,5.867-3.282,6.333
			l3.872,8.246h-5.408l-3.174-7.832l-2.766-0.407v8.239h-4.774V97.136z M255.983,106.54c1.448,0,1.863-0.568,1.863-2.672
			c0-1.914-0.582-2.583-1.863-2.583h-4.068v5.255H255.983z"/>
		<path style="fill:#FFFFFF;" d="M272.919,96.99c5.037,0,8.669,0.961,8.669,10.947c0,9.403-3.428,10.626-8.669,10.626
			c-5.24,0-8.683-0.932-8.683-10.626C264.236,97.951,268.028,96.99,272.919,96.99z M272.919,114.226
			c3.014,0,3.895-1.092,3.895-6.288c0-5.889-0.917-6.609-3.895-6.609c-2.89,0-3.908,0.524-3.908,6.609
			C269.011,113.148,269.63,114.226,272.919,114.226z"/>
		<path style="fill:#FFFFFF;" d="M298.086,96.903c3.522,0,5.152,0.262,7.54,1.055v3.727c-0.029,0-3.312-0.443-6.23-0.443
			c-2.744,0-3.836,0.327-3.836,6.551c0,4.774,0.685,6.492,3.857,6.492c3.058,0,6.209-0.248,6.209-0.248v3.727
			c-1.863,0.663-3.931,0.925-7.54,0.859c-5.387-0.065-7.301-3.952-7.301-10.889C290.785,100.921,292.292,96.903,298.086,96.903z"/>
		<path style="fill:#FFFFFF;" d="M314.104,97.136h5.538l6.719,21.312h-4.986l-1.397-4.279h-6.427l-1.397,4.279h-5.008
			L314.104,97.136z M318.936,110.026l-2.016-6.762l-2.213,6.762H318.936z M317.892,91.153h3.857l-3.436,4.09h-2.882L317.892,91.153z
			"/>
		<path style="fill:#FFFFFF;" d="M328.047,97.136h9.411c3.53,0,6.121,1.551,6.121,6.732c0,5.183-1.965,5.867-3.282,6.333
			l3.872,8.246h-5.408l-3.174-7.832l-2.766-0.407v8.239h-4.774V97.136z M336.912,106.54c1.448,0,1.863-0.568,1.863-2.672
			c0-1.914-0.582-2.583-1.863-2.583h-4.068v5.255H336.912z"/>
		<path style="fill:#FFFFFF;" d="M346.029,97.136h9.47c5.982,0,7.329,5.132,7.329,10.743c0,6.798-2.278,10.568-7.329,10.568h-9.47
			V97.136z M355.063,114.306c2.205,0,2.991-2.256,2.991-6.456c0-5.51-1.121-6.594-2.991-6.594h-4.258v13.05H355.063z"/>
		<path style="fill:#FFFFFF;" d="M364.669,101.794c0-4.005,2.946-4.68,4.979-4.658c0,0,6.885,0.117,9.439,0.466v3.981h-8.13
			c-1.514,0-1.514,0.845-1.514,1.631v2.416l8.261,0.313v3.944l-8.261,0.27v2.416c0.007,1.543,0.961,1.515,1.805,1.515h7.839v3.952
			c-2.249,0.306-9.148,0.494-9.148,0.494c-1.894,0.073-5.27-0.334-5.27-4.498V101.794z"/>
		<path style="fill:#FFFFFF;" d="M381.283,97.136h4.833l7.402,12.49v-12.49h4.774v21.312h-4.774l-7.432-12.271v12.271h-4.804V97.136
			z"/>
		<path style="fill:#FFFFFF;" d="M407.259,97.136h5.538l6.719,21.312h-4.986l-1.397-4.279h-6.427l-1.397,4.279H400.3L407.259,97.136
			z M412.091,110.026l-2.016-6.762l-2.213,6.762H412.091z"/>
		<path style="fill:#FFFFFF;" d="M420.212,102.58c0-4.222,2.504-5.554,5.765-5.619c3.617-0.087,6.695,0.27,8.588,0.896v3.734
			c-1.863-0.183-5.619-0.292-7.06-0.292c-1.688-0.021-2.519,0.073-2.519,1.718v0.721c0,1.34,0.437,1.762,2.053,1.762h3.086
			c4.287,0,5.219,3.537,5.219,5.881v1.216c0,5.095-3.021,6.085-5.903,6.085c-4.439,0-6.048-0.124-8.566-0.925v-3.733
			c1.164,0.116,4.768,0.319,7.475,0.319c1.237,0,2.221-0.254,2.221-1.55v-0.845c0-1.048-0.32-1.674-1.755-1.674h-2.983
			c-5.313,0-5.619-4.243-5.619-5.881V102.58z"/>
	</g>
	<g>
		<path style="fill:#FFFFFF;" d="M181.017,64.064h1.813l6.298,17.938h-2.157l-1.543-4.999h-7.156l-1.618,4.999h-2.23L181.017,64.064
			z M184.791,75.189l-2.892-8.356l-2.965,8.356H184.791z"/>
		<path style="fill:#FFFFFF;" d="M192.359,77.149c-1.078-0.686-1.421-2.278-1.421-3.577c0-3.112,1.618-4.632,4.24-4.632h7.646v1.373
			l-1.985,0.441c0.27,0.515,0.76,1.029,0.76,2.818c0,1.469-0.564,4.778-4.043,4.778h-3.823c-0.392,0-1.005,0.098-1.005,0.735
			c0,0.637,0.46,0.833,1.005,0.833h5.219c2.024,0,3.162,1.348,3.162,3.382v1.544c0,1.471-0.466,3.773-3.676,3.773h-3.676
			c-2.303,0-3.921-1.225-3.921-3.773v-2.083l0.98-1.593c-0.686-0.49-0.907-1.323-0.907-1.985
			C190.913,78.375,191.354,77.346,192.359,77.149z M194.76,86.805h3.676c1.446,0,1.862-0.809,1.862-1.96v-1.422
			c0-1.151-0.255-1.69-1.667-1.69h-4.876c-0.76,0-1.103-0.196-1.103-0.196v3.309C192.653,86.634,193.903,86.805,194.76,86.805z
			 M195.005,76.537h2.402c1.96,0,2.426-1.813,2.377-2.964c-0.074-1.716-0.466-2.818-2.402-2.818h-2.205
			c-2.01,0-2.426,1.47-2.426,2.818C192.751,74.773,193.119,76.537,195.005,76.537z"/>
		<path style="fill:#FFFFFF;" d="M209.607,68.892c3.063,0,4.975,0.294,4.975,4.606c0,1.887-1.005,2.99-3.357,2.99h-5.489
			c0,3.063,0.564,3.823,2.475,3.823c2.254,0,4.289,0.024,6.126-0.245v1.372c-1.985,0.563-4.092,0.686-6.126,0.686
			c-3.308,0-4.289-1.593-4.289-6.689C203.922,69.627,205.588,68.892,209.607,68.892z M211.225,74.7c1.079,0,1.544-0.392,1.544-1.201
			c0-2.573-0.49-2.793-3.137-2.793c-2.769,0-3.896,0.024-3.896,3.994H211.225z"/>
		<path style="fill:#FFFFFF;" d="M217.029,68.99h1.274l0.539,1.52c1.495-0.857,2.818-1.74,4.803-1.74
			c2.598,0,4.019,2.009,4.019,4.166v9.067h-1.813v-9.067c0-1.617-0.956-2.352-2.206-2.352c-1.96,0-2.916,0.49-4.803,1.396v10.022
			h-1.813V68.99z"/>
		<path style="fill:#FFFFFF;" d="M229.131,69.407l2.426-0.441l0.441-3.627h1.372v3.627h3.799v1.813h-3.799v6.567
			c0,2.132,0.563,2.622,1.396,2.818c0,0,2.01,0.515,2.182,0.515v1.299h-2.156c-1.888,0-3.235-1.177-3.235-4.632v-6.567h-2.426
			V69.407z"/>
		<path style="fill:#FFFFFF;" d="M244.812,68.892c3.063,0,4.975,0.294,4.975,4.606c0,1.887-1.004,2.99-3.356,2.99h-5.489
			c0,3.063,0.563,3.823,2.475,3.823c2.255,0,4.288,0.024,6.127-0.245v1.372c-1.985,0.563-4.093,0.686-6.127,0.686
			c-3.309,0-4.288-1.593-4.288-6.689C239.127,69.627,240.793,68.892,244.812,68.892z M246.43,74.7c1.078,0,1.544-0.392,1.544-1.201
			c0-2.573-0.49-2.793-3.137-2.793c-2.77,0-3.896,0.024-3.896,3.994H246.43z"/>
		<path style="fill:#FFFFFF;" d="M251.744,72.102c0-2.009,0.857-3.234,3.382-3.234c1.274,0,5.121,0.27,6.396,0.392v1.397h-6.396
			c-1.568,0-1.568,0.613-1.568,1.446v1.127c0,1.349,0.661,1.397,1.568,1.397h3.872c2.132,0,3.186,1.323,3.186,3.161v1.2
			c0,2.672-1.617,3.137-3.186,3.137c-1.201,0-5.784-0.367-6.715-0.465v-1.348h6.715c0,0,1.372,0.146,1.372-1.324v-1.2
			c0-0.857-0.294-1.348-1.372-1.348h-3.872c-2.304,0-3.382-0.687-3.382-3.21V72.102z"/>
		<path style="fill:#FFFFFF;" d="M276.979,64.064h1.813l6.298,17.938h-2.156l-1.544-4.999h-7.155l-1.617,4.999h-2.23L276.979,64.064
			z M280.754,75.189l-2.892-8.356l-2.966,8.356H280.754z"/>
		<path style="fill:#FFFFFF;" d="M290.724,68.794c1.103,0,3.234,0.343,4.803,0.98v-7.008h1.789v19.236h-1.299l-0.49-1.446
			c-0.637,0.466-3.137,1.594-4.803,1.594c-3.554,0-4.288-3.603-4.288-6.593C286.436,72.225,287.023,68.794,290.724,68.794z
			 M290.724,80.336c1.937,0,3.479-0.589,4.803-1.128v-7.963c-1.69-0.441-2.916-0.637-4.803-0.637c-1.568,0-2.475,0.956-2.475,4.949
			C288.249,78.743,289.131,80.336,290.724,80.336z"/>
		<path style="fill:#FFFFFF;" d="M300.008,68.99h1.813v9.067c0,1.617,0.955,2.353,2.205,2.353c1.961,0,2.916-0.49,4.803-1.396V68.99
			h1.813v13.012h-1.273l-0.54-1.52c-1.494,0.857-2.817,1.74-4.803,1.74c-2.598,0-4.019-2.01-4.019-4.166V68.99z"/>
		<path style="fill:#FFFFFF;" d="M313.09,77.419c0-1.96,1.225-3.258,3.259-3.258c0,0,5.44,0.024,5.44,0c0,0,0.024-1.617,0-1.642
			c0-1.495-0.784-2.009-2.01-2.009c-1.764,0-3.896,0.123-6.273,0.294V69.48c1.74-0.49,3.921-0.71,6.348-0.735
			c2.033-0.025,3.749,1.078,3.749,3.773v9.483h-1.348l-0.466-1.568c-0.049,0-3.21,1.716-5.44,1.716
			c-1.789,0-3.259-1.152-3.259-3.235V77.419z M316.349,80.336c1.961,0,5.44-1.25,5.44-1.25v-3.505l-5.44,0.393
			c-1.054,0.098-1.445,0.809-1.445,1.593v1.226C314.903,79.968,315.516,80.336,316.349,80.336z"/>
		<path style="fill:#FFFFFF;" d="M326.295,68.99h1.273l0.54,1.52c1.494-0.857,2.817-1.74,4.803-1.74
			c2.598,0,4.019,2.009,4.019,4.166v9.067h-1.813v-9.067c0-1.617-0.955-2.352-2.205-2.352c-1.961,0-2.916,0.49-4.803,1.396v10.022
			h-1.813V68.99z"/>
		<path style="fill:#FFFFFF;" d="M339.133,77.419c0-1.96,1.225-3.258,3.259-3.258c0,0,5.44,0.024,5.44,0c0,0,0.024-1.617,0-1.642
			c0-1.495-0.784-2.009-2.01-2.009c-1.764,0-3.896,0.123-6.273,0.294V69.48c1.74-0.49,3.921-0.71,6.348-0.735
			c2.033-0.025,3.749,1.078,3.749,3.773v9.483h-1.348l-0.466-1.568c-0.049,0-3.21,1.716-5.44,1.716
			c-1.789,0-3.259-1.152-3.259-3.235V77.419z M342.392,80.336c1.961,0,5.44-1.25,5.44-1.25v-3.505l-5.44,0.393
			c-1.054,0.098-1.445,0.809-1.445,1.593v1.226C340.946,79.968,341.559,80.336,342.392,80.336z"/>
		<path style="fill:#FFFFFF;" d="M352.338,62.814h1.813V77.37c0,2.132,0.563,2.622,1.396,2.818c0,0,2.01,0.515,2.181,0.515v1.299
			h-2.156c-1.887,0-3.234-1.177-3.234-4.632V62.814z"/>
		<path style="fill:#FFFFFF;" d="M363.902,68.892c3.063,0,4.975,0.294,4.975,4.606c0,1.887-1.004,2.99-3.356,2.99h-5.489
			c0,3.063,0.563,3.823,2.475,3.823c2.255,0,4.289,0.024,6.127-0.245v1.372c-1.985,0.563-4.093,0.686-6.127,0.686
			c-3.309,0-4.288-1.593-4.288-6.689C358.218,69.627,359.884,68.892,363.902,68.892z M365.521,74.7c1.078,0,1.544-0.392,1.544-1.201
			c0-2.573-0.49-2.793-3.137-2.793c-2.77,0-3.896,0.024-3.896,3.994H365.521z"/>
		<path style="fill:#FFFFFF;" d="M370.834,72.102c0-2.009,0.857-3.234,3.382-3.234c1.274,0,5.121,0.27,6.396,0.392v1.397h-6.396
			c-1.568,0-1.568,0.613-1.568,1.446v1.127c0,1.349,0.661,1.397,1.568,1.397h3.872c2.132,0,3.186,1.323,3.186,3.161v1.2
			c0,2.672-1.617,3.137-3.186,3.137c-1.201,0-5.784-0.367-6.715-0.465v-1.348h6.715c0,0,1.372,0.146,1.372-1.324v-1.2
			c0-0.857-0.294-1.348-1.372-1.348h-3.872c-2.304,0-3.382-0.687-3.382-3.21V72.102z"/>
	</g>
</g>
</svg>
